<svg width="600" height="400" viewBox="0 0 600 400" fill="none" xmlns="http://www.w3.org/2000/svg">
  <rect width="600" height="400" rx="20" fill="#F8F9FA"/>
  
  <!-- Background Elements -->
  <circle cx="150" cy="200" r="100" fill="#E9ECEF"/>
  <circle cx="450" cy="200" r="100" fill="#E9ECEF"/>
  <rect x="150" y="150" width="300" height="100" fill="#E9ECEF"/>
  
  <!-- Lock Icon -->
  <rect x="250" y="120" width="100" height="160" rx="10" fill="#4A6CF7"/>
  <rect x="270" y="180" width="60" height="60" rx="5" fill="#F8F9FA"/>
  <circle cx="300" cy="210" r="10" fill="#4A6CF7"/>
  <rect x="295" y="210" width="10" height="20" fill="#4A6CF7"/>
  
  <!-- User Icons -->
  <circle cx="150" cy="200" r="40" fill="#4A6CF7" opacity="0.8"/>
  <circle cx="150" cy="170" r="15" fill="#F8F9FA"/>
  <path d="M120 220C120 203.431 133.431 190 150 190C166.569 190 180 203.431 180 220" fill="#F8F9FA"/>
  
  <circle cx="450" cy="200" r="40" fill="#4A6CF7" opacity="0.8"/>
  <circle cx="450" cy="170" r="15" fill="#F8F9FA"/>
  <path d="M420 220C420 203.431 433.431 190 450 190C466.569 190 480 203.431 480 220" fill="#F8F9FA"/>
  
  <!-- Connection Lines -->
  <path d="M190 200L250 200" stroke="#4A6CF7" stroke-width="3" stroke-dasharray="5 5"/>
  <path d="M350 200L410 200" stroke="#4A6CF7" stroke-width="3" stroke-dasharray="5 5"/>
  
  <!-- Small Decorative Elements -->
  <circle cx="100" cy="100" r="10" fill="#4A6CF7" opacity="0.5"/>
  <circle cx="500" cy="100" r="10" fill="#4A6CF7" opacity="0.5"/>
  <circle cx="100" cy="300" r="10" fill="#4A6CF7" opacity="0.5"/>
  <circle cx="500" cy="300" r="10" fill="#4A6CF7" opacity="0.5"/>
</svg> 