<svg width="32" height="32" viewBox="0 0 32 32" fill="none" xmlns="http://www.w3.org/2000/svg">
  <rect width="32" height="32" rx="8" fill="#4A6CF7"/>
  <path d="M16 8C11.582 8 8 11.582 8 16C8 20.418 11.582 24 16 24C20.418 24 24 20.418 24 16C24 11.582 20.418 8 16 8ZM16 22C12.686 22 10 19.314 10 16C10 12.686 12.686 10 16 10C19.314 10 22 12.686 22 16C22 19.314 19.314 22 16 22Z" fill="white"/>
  <path d="M16 12C14.895 12 14 12.895 14 14C14 15.105 14.895 16 16 16C17.105 16 18 15.105 18 14C18 12.895 17.105 12 16 12Z" fill="white"/>
  <path d="M16 18C13.791 18 12 19.791 12 22H20C20 19.791 18.209 18 16 18Z" fill="white"/>
</svg> 